<?xml version="1.0" encoding="iso-8859-1"?>
<!-- Generator: Adobe Illustrator 19.0.0, SVG Export Plug-In . SVG Version: 6.00 Build 0)  -->
<svg version="1.1" id="Capa_1" xmlns="http://www.w3.org/2000/svg" xmlns:xlink="http://www.w3.org/1999/xlink" x="0px" y="0px"
	 viewBox="0 0 512 512" style="enable-background:new 0 0 512 512;" xml:space="preserve">
<circle style="fill:#01E6F0;" cx="256" cy="256" r="256"/>
<path style="fill:#00BCBC;" d="M512,256c0-4.838-0.147-9.64-0.412-14.412L403.5,133.5l-56.476,12.881l-20.514,36.692l-53.327-53.327
	L93.787,213.825L232.24,352.278l-77.597,53.751l105.912,105.912c36.472-0.637,71.081-8.897,102.307-23.261l2.89-2.89l1.05,1.05
	C452.705,445.534,512,357.692,512,256z"/>
<polygon style="fill:#1F66CC;" points="216.467,284.132 154.446,132.074 178.425,123.753 240.446,275.811 "/>
<polygon style="fill:#154797;" points="240.446,275.811 178.425,123.753 165.832,128.123 226.994,280.478 "/>
<path style="fill:#FF328D;" d="M281.915,143.051c-17.113-45.489-128.571-56.337-128.571-56.337s-76.67,81.622-59.557,127.111
	L281.915,143.051z"/>
<path style="fill:#C40B5A;" d="M187.177,178.691l94.737-35.64c-17.113-45.489-128.571-56.337-128.571-56.337L187.177,178.691z"/>
<path style="fill:#FFDE1F;" d="M238.392,159.424c-17.113-45.489-85.049-72.71-85.049-72.71s-33.148,65.249-16.035,110.738
	L238.392,159.424z"/>
<path style="fill:#F9C41E;" d="M187.177,178.691l51.215-19.267c-17.113-45.489-85.049-72.71-85.049-72.71L187.177,178.691z"/>
<polygon style="fill:#0666A9;" points="305.58,272.921 281.301,265.079 337.393,133.5 403.5,133.5 403.5,158.846 356.488,158.846 
	"/>
<path style="fill:#FFFFFF;" d="M137.266,216.169c-17.316,24.03-27.523,53.524-27.523,85.405
	c0,80.775,65.481,146.257,146.257,146.257s146.257-65.481,146.257-146.257c0-31.881-10.207-61.375-27.523-85.405L137.266,216.169
	L137.266,216.169z"/>
<path style="fill:#E0E0E0;" d="M374.734,216.169H255.952V447.83c0.016,0,0.032,0.001,0.048,0.001
	c80.775,0,146.257-65.481,146.257-146.257C402.257,269.693,392.05,240.199,374.734,216.169z"/>
<path style="fill:#AB6A50;" d="M111.394,279.689c-1.073,7.141-1.65,14.445-1.65,21.885c0,80.775,65.481,146.257,146.257,146.257
	s146.257-65.481,146.257-146.257c0-7.44-0.578-14.744-1.65-21.885L111.394,279.689L111.394,279.689z"/>
<path style="fill:#854830;" d="M400.607,279.689H255.952V447.83c0.016,0,0.032,0.001,0.048,0.001
	c80.775,0,146.257-65.481,146.257-146.257C402.257,294.134,401.679,286.831,400.607,279.689z"/>
<g>
</g>
<g>
</g>
<g>
</g>
<g>
</g>
<g>
</g>
<g>
</g>
<g>
</g>
<g>
</g>
<g>
</g>
<g>
</g>
<g>
</g>
<g>
</g>
<g>
</g>
<g>
</g>
<g>
</g>
</svg>
