<svg id="Layer_2" height="512" viewBox="0 0 64 64" width="512" xmlns="http://www.w3.org/2000/svg" data-name="Layer 2"><path d="m63 49c-2.265 0-2.266-2-4.531-2s-2.264 2-4.529 2-2.266-2-4.53-2-2.263 2-4.528 2-2.268-2-4.535-2-2.267 2-4.535 2-2.27-2-4.538-2h-10.274c-2.5 0-2.5 2-5 2s-2.5-2-5-2-2.5 2-5 2-2.5-2-5-2h-1v17h64v-15z" fill="#7cd4f7"/><path d="m64 53.2v10.8h-64v-12.615a5.639 5.639 0 0 1 3.81 1.42 1.908 1.908 0 0 0 2.74 0 5.691 5.691 0 0 1 3.82-1.42 5.691 5.691 0 0 1 3.82 1.42 1.908 1.908 0 0 0 2.74 0 5.691 5.691 0 0 1 3.82-1.42l10.49-.18a5.17 5.17 0 0 1 3.68 1.49c.51.44.62.51 1.04.51s.52-.07 1.04-.51a5.179 5.179 0 0 1 7.27 0c.51.44.62.51 1.04.51s.52-.07 1.04-.51a5.179 5.179 0 0 1 7.27 0c.51.44.62.51 1.03.51s.53-.07 1.04-.51a5.179 5.179 0 0 1 7.27 0c.52.44.62.505 1.04.505z" fill="#1799da"/><path d="m35 17s-16 15-15 46h12s-3-32 3-46z" fill="#d6ae03"/><path d="m40 12.5-21-10.5-14 6 32.96 8.24z" fill="#33b575"/><path d="m35 13.667 15-11.667 11 4-24.317 10.808z" fill="#268c56"/><path d="m40 20 11 4 3 8-19.125-9h-29.875l8.6-6.121c2.4-1.879 3.773-2.879 6.147-2.879h16.92z" fill="#268c56"/><path d="m35 14h21l5 6h-21z" fill="#33b575"/><g fill="#192b54"><path d="m9 64h-2a1 1 0 0 1 0-2h2a1 1 0 0 1 0 2z"/><path d="m3 64h-2a1 1 0 0 1 0-2h2a1 1 0 0 1 0 2z"/><path d="m51 58h-2a1 1 0 0 1 0-2h2a1 1 0 0 1 0 2z"/><path d="m57 58h-2a1 1 0 0 1 0-2h2a1 1 0 0 1 0 2z"/><path d="m45 58h-2a1 1 0 0 1 0-2h2a1 1 0 0 1 0 2z"/><path d="m63 64h-50a1 1 0 0 1 0-2h50a1 1 0 0 1 0 2z"/><path d="m32 64h-12a1 1 0 0 1 -1-.968 75.137 75.137 0 0 1 4.057-27.7 1 1 0 1 1 1.885.67 72.763 72.763 0 0 0 -3.969 26h9.937c-.422-5.155-1.9-26.678 1.544-40.427a54.7 54.7 0 0 0 -6.1 10.819 1 1 0 1 1 -1.84-.785c4.335-10.141 9.582-15.13 9.8-15.337a1 1 0 0 1 1.6 1.123c-5.825 13.605-2.948 45.194-2.914 45.511a1 1 0 0 1 -1 1.094z"/><path d="m26.333 53h-5.333a1 1 0 0 1 0-2h5.333a1 1 0 0 1 0 2z"/><path d="m31.275 42h-4.275a1 1 0 0 1 0-2h4.275a1 1 0 1 1 0 2z"/><path d="m26 24h-21a1 1 0 0 1 -.58-1.814l8.6-6.121c2.486-1.948 4.043-3.065 6.727-3.065h9.253a1 1 0 0 1 0 2h-9.253c-2.035 0-3.23.865-5.529 2.666l-6.088 4.334h17.87a1 1 0 0 1 0 2z"/><path d="m29 15a.993.993 0 0 1 -.243-.03l-24-6a1 1 0 0 1 -.151-1.889l6-2.571a1 1 0 0 1 .787 1.838l-3.271 1.402 21.12 5.28a1 1 0 0 1 -.242 1.97z"/><path d="m33 10a1 1 0 0 1 -.446-.105l-13.586-6.795-3.574 1.533a1 1 0 0 1 -.787-1.838l4-1.714a1 1 0 0 1 .841.024l14 7a1 1 0 0 1 -.448 1.895z"/><path d="m36 12a1.012 1.012 0 0 1 -.287-.042 1 1 0 0 1 -.671-1.245l3-10a1 1 0 1 1 1.916.574l-3 10a1 1 0 0 1 -.958.713z"/><path d="m61 21h-21a1 1 0 0 1 0-2h18.865l-3.334-4h-1.531a1 1 0 0 1 0-2h2a1 1 0 0 1 .769.359l5 6a1 1 0 0 1 -.769 1.641z"/><path d="m50 15h-8a1 1 0 0 1 0-2h8a1 1 0 0 1 0 2z"/><path d="m43 15a1 1 0 0 1 -.407-1.914l15.736-6.993-8.151-2.964-8.563 6.66a1 1 0 1 1 -1.229-1.578l9-7a1 1 0 0 1 .956-.15l11 4a1 1 0 0 1 .064 1.854l-18 8a1 1 0 0 1 -.406.085z"/><path d="m54 33a1 1 0 0 1 -.426-.095l-17-8a1 1 0 0 1 .852-1.811l14.774 6.954-1.975-5.266-10.567-3.843a1 1 0 0 1 .684-1.879l11 4a1 1 0 0 1 .595.588l3 8a1 1 0 0 1 -.937 1.352z"/><path d="m16 50a4.527 4.527 0 0 1 -3.125-1.219 2.621 2.621 0 0 0 -1.881-.781 2.582 2.582 0 0 0 -1.874.78 4.523 4.523 0 0 1 -3.12 1.22 4.517 4.517 0 0 1 -3.123-1.22 2.579 2.579 0 0 0 -1.877-.78 1 1 0 0 1 0-2 4.517 4.517 0 0 1 3.122 1.22 2.639 2.639 0 0 0 3.748 0 4.617 4.617 0 0 1 6.251 0 2.584 2.584 0 0 0 1.879.78 2.621 2.621 0 0 0 1.878-.781 4.527 4.527 0 0 1 3.122-1.219 1 1 0 0 1 0 2 2.584 2.584 0 0 0 -1.876.781 4.533 4.533 0 0 1 -3.124 1.219z"/><path d="m35.809 50.018a4.081 4.081 0 0 1 -2.926-1.248 2.14 2.14 0 0 0 -1.605-.749 1 1 0 1 1 0-2 4.088 4.088 0 0 1 2.928 1.248 2.138 2.138 0 0 0 1.6.749 2.14 2.14 0 0 0 1.607-.751 4.081 4.081 0 0 1 2.928-1.252 4.086 4.086 0 0 1 2.928 1.248 2.138 2.138 0 0 0 1.6.749 2.135 2.135 0 0 0 1.6-.75 4.074 4.074 0 0 1 2.926-1.253 4.075 4.075 0 0 1 2.925 1.249 2.136 2.136 0 0 0 1.6.748 2.135 2.135 0 0 0 1.6-.75 4.074 4.074 0 0 1 2.949-1.256 4.077 4.077 0 0 1 2.931 1.252 2.136 2.136 0 0 0 1.6.748 1 1 0 0 1 0 2 4.078 4.078 0 0 1 -2.925-1.248 2.134 2.134 0 0 0 -1.6-.749 2.138 2.138 0 0 0 -1.6.751 4.075 4.075 0 0 1 -2.927 1.252 4.079 4.079 0 0 1 -2.923-1.248 2.133 2.133 0 0 0 -1.6-.749 2.134 2.134 0 0 0 -1.6.751 4.077 4.077 0 0 1 -2.927 1.252 4.08 4.08 0 0 1 -2.925-1.248 2.14 2.14 0 0 0 -1.6-.749 2.144 2.144 0 0 0 -1.605.751 4.082 4.082 0 0 1 -2.93 1.252z"/><path d="m31 35h-3a1 1 0 0 1 0-2h3a1 1 0 0 1 0 2z"/></g></svg>